<svg xmlns="http://www.w3.org/2000/svg" width="2386.845" height="233.627" viewBox="0 0 2386.845 233.627">
  <g id="Group_22" data-name="Group 22" transform="translate(-918.55 -4384.96)">
    <path id="Path_303" data-name="Path 303" d="M26.55-16.52a17.946,17.946,0,0,0,18.29,18,17.879,17.879,0,0,0,17.995-18V-84.075h89.09a16.493,16.493,0,0,0,16.52-16.52,16.493,16.493,0,0,0-16.52-16.52H62.835V-173.46H165.2a16.493,16.493,0,0,0,16.52-16.52A16.493,16.493,0,0,0,165.2-206.5H44.84a18.011,18.011,0,0,0-18.29,18.29Zm193.52-1.77A18.011,18.011,0,0,0,238.36,0H349.87a16.493,16.493,0,0,0,16.52-16.52,16.493,16.493,0,0,0-16.52-16.52H256.355V-189.98a17.879,17.879,0,0,0-18-17.995,17.946,17.946,0,0,0-18.29,17.995Zm348.985,2.95a16.545,16.545,0,0,0,16.52,16.815c7.965,0,12.685-3.54,17.7-10.03l54.575-71.1L713.31-7.375c4.425,5.9,8.85,8.85,16.52,8.85,10.325,0,18-7.67,18-17.7,0-5.31-2.655-9.735-5.605-13.57L681.45-105.61l57.82-71.98c3.54-4.425,5.6-8.555,5.6-13.865,0-10.03-8.555-16.52-16.52-16.52s-12.98,3.54-17.7,10.03L659.03-130.39l-52.215-68.735c-4.425-5.9-8.85-8.85-16.52-8.85-10.325,0-17.995,7.67-17.995,17.7,0,5.015,2.655,9.735,5.605,13.57l57.82,71.685-61.36,76.11C571.12-24.485,569.055-20.355,569.055-15.34ZM790.3-18.29A18.011,18.011,0,0,0,808.6,0h77.29c46.02,0,76.4-19.765,76.4-56.64v-.59c0-28.025-16.815-41.89-41-50.15,15.34-7.965,29.5-21.24,29.5-46.02v-.59c0-13.865-4.72-25.075-13.865-34.22-11.8-11.8-30.385-18.29-53.985-18.29H808.6a18.011,18.011,0,0,0-18.29,18.29ZM826-119.475v-54.87h52.215c23.3,0,36.285,10.03,36.285,26.255v.59c0,18.88-15.635,28.025-38.94,28.025Zm0,87.32v-56.64h57.525c28.615,0,42.48,10.325,42.48,27.73v.59c0,18.585-15.045,28.32-39.825,28.32ZM1101.825,3.54c63.425,0,108.265-48.675,108.265-106.79v-.59c0-58.115-44.25-106.2-107.675-106.2S994.15-161.365,994.15-103.25v.59C994.15-44.545,1038.4,3.54,1101.825,3.54Zm.59-33.63c-41.005,0-70.21-33.04-70.21-73.16v-.59c0-40.12,28.615-72.865,69.62-72.865s70.21,33.335,70.21,73.455v.59C1172.035-62.54,1143.42-30.09,1102.415-30.09ZM1233.69-15.34a16.545,16.545,0,0,0,16.52,16.815c7.965,0,12.685-3.54,17.7-10.03l54.575-71.1,55.46,72.275c4.425,5.9,8.85,8.85,16.52,8.85,10.325,0,17.995-7.67,17.995-17.7,0-5.31-2.655-9.735-5.6-13.57l-60.77-75.815,57.82-71.98c3.54-4.425,5.6-8.555,5.6-13.865,0-10.03-8.555-16.52-16.52-16.52s-12.98,3.54-17.7,10.03l-51.625,67.555-52.215-68.735c-4.425-5.9-8.85-8.85-16.52-8.85-10.325,0-17.995,7.67-17.995,17.7,0,5.015,2.655,9.735,5.6,13.57l57.82,71.685L1239-28.91C1235.755-24.485,1233.69-20.355,1233.69-15.34Zm309.75-1.18a17.946,17.946,0,0,0,18.29,18,17.879,17.879,0,0,0,17.995-18V-84.075h89.09a16.493,16.493,0,0,0,16.52-16.52,16.493,16.493,0,0,0-16.52-16.52h-89.09V-173.46H1682.09a16.493,16.493,0,0,0,16.52-16.52,16.493,16.493,0,0,0-16.52-16.52H1561.73a18.011,18.011,0,0,0-18.29,18.29Zm195.585,0a17.946,17.946,0,0,0,18.29,18,17.879,17.879,0,0,0,17.995-18V-189.98a17.879,17.879,0,0,0-17.995-17.995,17.946,17.946,0,0,0-18.29,17.995ZM1902.75,2.95c43.365,0,73.75-23.01,73.75-61.655v-.59c0-34.22-22.42-49.855-66.08-60.475-39.825-9.44-49.265-16.52-49.265-32.45v-.59c0-13.57,12.39-24.485,33.63-24.485,16.225,0,31.565,5.31,47.495,15.635a17.549,17.549,0,0,0,9.44,2.655,16.873,16.873,0,0,0,17.11-16.815,16.381,16.381,0,0,0-7.965-14.455c-18.585-12.39-39.53-19.175-65.49-19.175-41.005,0-70.505,24.485-70.505,59.885v.59c0,38.055,24.78,51.035,68.735,61.655,38.35,8.85,46.61,16.815,46.61,31.565v.59c0,15.34-14.16,25.96-36.58,25.96s-40.71-7.67-57.82-21.24a16.821,16.821,0,0,0-10.62-3.245,16.873,16.873,0,0,0-17.11,16.815,17.016,17.016,0,0,0,7.08,13.865A128.56,128.56,0,0,0,1902.75,2.95Zm116.525-19.47a17.946,17.946,0,0,0,18.29,18,17.879,17.879,0,0,0,18-18v-70.5h98.53v70.5a17.879,17.879,0,0,0,18,18,17.946,17.946,0,0,0,18.29-18V-189.98a17.946,17.946,0,0,0-18.29-17.995,17.879,17.879,0,0,0-18,17.995v69.325h-98.53V-189.98a17.879,17.879,0,0,0-18-17.995,17.946,17.946,0,0,0-18.29,17.995Zm282.315,0a17.879,17.879,0,0,0,17.995,18,17.946,17.946,0,0,0,18.29-18v-64.6l70.505-96.465c2.655-3.54,5.015-7.965,5.015-12.98,0-9.735-7.08-17.7-17.7-17.7-7.67,0-12.98,4.425-17.405,10.915l-58.41,83.19-57.525-82.895c-4.425-6.49-9.735-10.915-17.7-10.915-10.325,0-18.29,7.67-18.29,17.4a22.441,22.441,0,0,0,4.13,12.685L2301.59-80.24Z" transform="translate(892 4595)" fill="#ff7f00"/>
    <path id="Subtraction_34" data-name="Subtraction 34" d="M115.36,224.457,0,130.18a146.654,146.654,0,0,1,2.35-26.2A141.383,141.383,0,0,1,9.091,79.573,135.936,135.936,0,0,1,19.757,57.482,129.139,129.139,0,0,1,33.886,38.228a120.994,120.994,0,0,1,17.125-15.9A112.75,112.75,0,0,1,70.669,10.313,106.461,106.461,0,0,1,92.394,2.7,104.576,104.576,0,0,1,115.724,0V224.16l-.363.3Z" transform="translate(1230.147 4394.13)" fill="#62ceff"/>
    <path id="Subtraction_35" data-name="Subtraction 35" d="M115.724,224.458h0a104.576,104.576,0,0,1-23.329-2.7,106.462,106.462,0,0,1-21.726-7.617,112.745,112.745,0,0,1-19.658-12.018,121,121,0,0,1-17.125-15.9,129.14,129.14,0,0,1-14.128-19.255A135.936,135.936,0,0,1,9.091,144.884,141.383,141.383,0,0,1,2.35,120.478,146.653,146.653,0,0,1,0,94.277L115.36,0l.364.3v224.16Z" transform="translate(1461.722 4618.587) rotate(180)" fill="#8ddbff"/>
    <path id="Path_261" data-name="Path 261" d="M652.685-14.013h97.631l-8.622,98.4-40.52,11.484L661.386,84.392l-2.536-30.236h19.481l2.064,15,20.78,5.745,21.776-5.745L724.728,44.7H680.395l-2.064-20.031H726.5l1.879-18.9H654.628Z" transform="translate(644.376 4464.077)" fill="#fff"/>
  </g>
</svg>
